HIERARCHY
ROOT Reference
{
  OFFSET 0 0 0
  CHANNELS 6 Xposition Yposition Zposition Zrotation Xrotation Yrotation
  JOINT Hips
  {
    OFFSET 251.394 724.17 483.536
    CHANNELS 3 Zrotation Xrotation Yrotation
    JOINT RightUpLeg
    {
      OFFSET -0.450515 -23.4426 -1.37224
      CHANNELS 3 Zrotation Xrotation Yrotation
      JOINT RightLeg
      {
        OFFSET 112.821 0.0872427 -0.321027
        CHANNELS 3 Zrotation Xrotation Yrotation
        JOINT RightFoot
        {
          OFFSET 105.718 0.000193788 0.0213165
          CHANNELS 3 Zrotation Xrotation Yrotation
          JOINT RightToeBase
          {
            OFFSET 37.638 -0.000116272 0.00224792
            CHANNELS 3 Zrotation Xrotation Yrotation
            JOINT RightToeEnd
            {
              OFFSET 21.2112 0.114605 -0.000138184
              CHANNELS 3 Zrotation Xrotation Yrotation
              End Site
              {
                OFFSET 0 0 0
              }
            }
          }
        }
      }
    }
    JOINT LeftUpLeg
    {
      OFFSET -0.449508 23.4315 -1.37054
      CHANNELS 3 Zrotation Xrotation Yrotation
      JOINT LeftLeg
      {
        OFFSET 112.821 -0.0485242 -0.372458
        CHANNELS 3 Zrotation Xrotation Yrotation
        JOINT LeftFoot
        {
          OFFSET 105.716 0.00496094 -0.0229443
          CHANNELS 3 Zrotation Xrotation Yrotation
          JOINT LeftToeBase
          {
            OFFSET 37.639 0 0.00158905
            CHANNELS 3 Zrotation Xrotation Yrotation
            JOINT LeftToeEnd
            {
              OFFSET 21.2113 -0.125031 -0.00017438
              CHANNELS 3 Zrotation Xrotation Yrotation
              End Site
              {
                OFFSET 0 0 0
              }
            }
          }
        }
      }
    }
    JOINT Spine
    {
      OFFSET -5.01225 0.000463591 -9.60395
      CHANNELS 3 Zrotation Xrotation Yrotation
      JOINT Spine1
      {
        OFFSET 26.0222 -0.000271301 -0.000155029
        CHANNELS 3 Zrotation Xrotation Yrotation
        JOINT Spine2
        {
          OFFSET 27.173 -0.000155029 -0.000310058
          CHANNELS 3 Zrotation Xrotation Yrotation
          JOINT Spine3
          {
            OFFSET 36.3953 -0.000232544 7.75146e-005
            CHANNELS 3 Zrotation Xrotation Yrotation
            JOINT Neck
            {
              OFFSET 36.4331 0 -3.00261
              CHANNELS 3 Zrotation Xrotation Yrotation
              JOINT Head
              {
                OFFSET 23.0407 -0.000232544 -0.000310058
                CHANNELS 3 Zrotation Xrotation Yrotation
                End Site
                {
                  OFFSET 0 0 0
                }
              }
            }
            JOINT LeftShoulder
            {
              OFFSET 20.1317 6.74168 -12.6061
              CHANNELS 3 Zrotation Xrotation Yrotation
              JOINT LeftArm
              {
                OFFSET 34.2172 -5.81359e-005 7.75146e-005
                CHANNELS 3 Zrotation Xrotation Yrotation
                JOINT LeftForeArm
                {
                  OFFSET 65.4129 -0.0821605 0.0585235
                  CHANNELS 3 Zrotation Xrotation Yrotation
                  JOINT LeftHand
                  {
                    OFFSET 67.3883 0.0359667 0.0112396
                    CHANNELS 3 Zrotation Xrotation Yrotation
                    JOINT LeftHandThumb1
                    {
                      OFFSET 8.78386 2.85353 -6.05362
                      CHANNELS 3 Zrotation Xrotation Yrotation
                      JOINT LeftHandThumb2
                      {
                        OFFSET 8.25498 -0.000116272 -0.000174407
                        CHANNELS 3 Zrotation Xrotation Yrotation
                        JOINT LeftHandThumb3
                        {
                          OFFSET 7.24822 0.000310058 5.81358e-005
                          CHANNELS 3 Zrotation Xrotation Yrotation
                          JOINT LeftHandThumb4
                          {
                            OFFSET 7.0004 -3.87568e-005 -0.000310057
                            CHANNELS 3 Zrotation Xrotation Yrotation
                            End Site
                            {
                              OFFSET 0 0 0
                            }
                          }
                        }
                      }
                    }
                    JOINT LeftHandIndex1
                    {
                      OFFSET 24.0991 -1.01537 -5.40558
                      CHANNELS 3 Zrotation Xrotation Yrotation
                      JOINT LeftHandIndex2
                      {
                        OFFSET 7.26759 -0.000290679 -0.000465086
                        CHANNELS 3 Zrotation Xrotation Yrotation
                        JOINT LeftHandIndex3
                        {
                          OFFSET 7.13628 -1.93787e-005 0.000232543
                          CHANNELS 3 Zrotation Xrotation Yrotation
                          JOINT LeftHandIndex4
                          {
                            OFFSET 5.46699 9.68932e-005 -0.000387571
                            CHANNELS 3 Zrotation Xrotation Yrotation
                            End Site
                            {
                              OFFSET 0 0 0
                            }
                          }
                        }
                      }
                    }
                    JOINT LeftHandMiddle1
                    {
                      OFFSET 24.4604 -2.52837 0.918567
                      CHANNELS 3 Zrotation Xrotation Yrotation
                      JOINT LeftHandMiddle2
                      {
                        OFFSET 7.41627 -5.81359e-005 0.000116271
                        CHANNELS 3 Zrotation Xrotation Yrotation
                        JOINT LeftHandMiddle3
                        {
                          OFFSET 8.76829 3.87573e-005 -7.75142e-005
                          CHANNELS 3 Zrotation Xrotation Yrotation
                          JOINT LeftHandMiddle4
                          {
                            OFFSET 6.07588 -0.00013565 -5.81356e-005
                            CHANNELS 3 Zrotation Xrotation Yrotation
                            End Site
                            {
                              OFFSET 0 0 0
                            }
                          }
                        }
                      }
                    }
                    JOINT LeftHandRing1
                    {
                      OFFSET 22.465 -1.97467 6.3466
                      CHANNELS 3 Zrotation Xrotation Yrotation
                      JOINT LeftHandRing2
                      {
                        OFFSET 7.36666 -0.000232544 0.000387571
                        CHANNELS 3 Zrotation Xrotation Yrotation
                        JOINT LeftHandRing3
                        {
                          OFFSET 8.07624 -0.000465087 -0.000203475
                          CHANNELS 3 Zrotation Xrotation Yrotation
                          JOINT LeftHandRing4
                          {
                            OFFSET 6.04433 0.00013565 3.87571e-005
                            CHANNELS 3 Zrotation Xrotation Yrotation
                            End Site
                            {
                              OFFSET 0 0 0
                            }
                          }
                        }
                      }
                    }
                    JOINT LeftHandPinky1
                    {
                      OFFSET 19.5278 0.352933 10.4295
                      CHANNELS 3 Zrotation Xrotation Yrotation
                      JOINT LeftHandPinky2
                      {
                        OFFSET 6.16525 5.8136e-005 -0.000251921
                        CHANNELS 3 Zrotation Xrotation Yrotation
                        JOINT LeftHandPinky3
                        {
                          OFFSET 6.14448 -0.000329434 -0.00510625
                          CHANNELS 3 Zrotation Xrotation Yrotation
                          JOINT LeftHandPinky4
                          {
                            OFFSET 4.98555 0.000116272 0.000116271
                            CHANNELS 3 Zrotation Xrotation Yrotation
                            End Site
                            {
                              OFFSET 0 0 0
                            }
                          }
                        }
                      }
                    }
                  }
                }
              }
            }
            JOINT RightShoulder
            {
              OFFSET 20.1309 -6.74152 -12.6063
              CHANNELS 3 Zrotation Xrotation Yrotation
              JOINT RightArm
              {
                OFFSET 34.2171 7.75146e-005 7.75146e-005
                CHANNELS 3 Zrotation Xrotation Yrotation
                JOINT RightForeArm
                {
                  OFFSET 65.4492 0.242543 -0.176501
                  CHANNELS 3 Zrotation Xrotation Yrotation
                  JOINT RightHand
                  {
                    OFFSET 67.3888 -0.0867388 0.0597442
                    CHANNELS 3 Zrotation Xrotation Yrotation
                    JOINT RightHandThumb1
                    {
                      OFFSET 8.78307 -2.85357 -6.05302
                      CHANNELS 3 Zrotation Xrotation Yrotation
                      JOINT RightHandThumb2
                      {
                        OFFSET 8.25493 -7.75145e-005 0
                        CHANNELS 3 Zrotation Xrotation Yrotation
                        JOINT RightHandThumb3
                        {
                          OFFSET 7.24797 -0.000174408 0.000155029
                          CHANNELS 3 Zrotation Xrotation Yrotation
                          JOINT RightHandThumb4
                          {
                            OFFSET 7.00062 0 0
                            CHANNELS 3 Zrotation Xrotation Yrotation
                            End Site
                            {
                              OFFSET 0 0 0
                            }
                          }
                        }
                      }
                    }
                    JOINT RightHandIndex1
                    {
                      OFFSET 24.0991 1.01525 -5.40578
                      CHANNELS 3 Zrotation Xrotation Yrotation
                      JOINT RightHandIndex2
                      {
                        OFFSET 7.26773 7.75144e-005 0.000232543
                        CHANNELS 3 Zrotation Xrotation Yrotation
                        JOINT RightHandIndex3
                        {
                          OFFSET 7.13572 -0.000310058 3.87571e-005
                          CHANNELS 3 Zrotation Xrotation Yrotation
                          JOINT RightHandIndex4
                          {
                            OFFSET 5.46717 0 3.87572e-005
                            CHANNELS 3 Zrotation Xrotation Yrotation
                            End Site
                            {
                              OFFSET 0 0 0
                            }
                          }
                        }
                      }
                    }
                    JOINT RightHandMiddle1
                    {
                      OFFSET 24.4603 2.52899 0.918547
                      CHANNELS 3 Zrotation Xrotation Yrotation
                      JOINT RightHandMiddle2
                      {
                        OFFSET 7.41641 -0.000116272 -0.000116272
                        CHANNELS 3 Zrotation Xrotation Yrotation
                        JOINT RightHandMiddle3
                        {
                          OFFSET 8.76765 -3.87577e-005 0.000232543
                          CHANNELS 3 Zrotation Xrotation Yrotation
                          JOINT RightHandMiddle4
                          {
                            OFFSET 6.07609 -0.000193787 -0.000116271
                            CHANNELS 3 Zrotation Xrotation Yrotation
                            End Site
                            {
                              OFFSET 0 0 0
                            }
                          }
                        }
                      }
                    }
                    JOINT RightHandRing1
                    {
                      OFFSET 22.465 1.97571 6.34696
                      CHANNELS 3 Zrotation Xrotation Yrotation
                      JOINT RightHandRing2
                      {
                        OFFSET 7.36684 0.000193786 0.000155029
                        CHANNELS 3 Zrotation Xrotation Yrotation
                        JOINT RightHandRing3
                        {
                          OFFSET 8.07614 -0.000271301 0
                          CHANNELS 3 Zrotation Xrotation Yrotation
                          JOINT RightHandRing4
                          {
                            OFFSET 6.04468 0.000232543 0
                            CHANNELS 3 Zrotation Xrotation Yrotation
                            End Site
                            {
                              OFFSET 0 0 0
                            }
                          }
                        }
                      }
                    }
                    JOINT RightHandPinky1
                    {
                      OFFSET 19.5277 -0.352346 10.4296
                      CHANNELS 3 Zrotation Xrotation Yrotation
                      JOINT RightHandPinky2
                      {
                        OFFSET 6.16508 0 0.000232543
                        CHANNELS 3 Zrotation Xrotation Yrotation
                        JOINT RightHandPinky3
                        {
                          OFFSET 6.14396 -0.000155048 -0.0048834
                          CHANNELS 3 Zrotation Xrotation Yrotation
                          JOINT RightHandPinky4
                          {
                            OFFSET 4.98577 -7.75146e-005 -7.75143e-005
                            CHANNELS 3 Zrotation Xrotation Yrotation
                            End Site
                            {
                              OFFSET 0 0 0
                            }
                          }
                        }
                      }
                    }
                  }
                }
              }
            }
          }
        }
      }
    }
  }
}
MOTION
Frames:	5
Frame Time:	0.0333333
0 0 0 -90 -7.01671e-015 -180 -135.218 77.2409 23.277 142.47 -0.224408 -95.1596 -2.61686 -2.37673 -49.1084 16.5252 23.155 35.655 -17.1477 21.5044 58.3665 2.63116e-007 2.50078e-005 -86.4974 168.479 -22.9977 -115.379 -0.266777 -0.0919239 -5.03279 -8.79627 -2.45495 39.8274 -4.2325 4.03091 52.6744 0.000120984 -4.2444e-005 -86.4975 -1.02838e-005 8.45137e-005 123.633 -8.36869 7.68888 -12.0467 14.2143 5.16256 -13.7921 0.339895 -2.94211 -8.66912 3.72971 -6.09333 38.6753 7.98693 -12.0018 46.0677 105.842 21.8209 -31.0704 63.4017 15.2268 -8.38663 -11.097 30.124 28.0437 -1.02438 -46.932 -3.57689 -158.659 -1.25429 154.969 0.000467636 -0.00014786 18.1946 0.00014913 -4.94584e-005 11.9589 0.000181852 -0.0013893 -0.0001588 36.0777 86.5106 -17.7689 -0.000307808 -0.000223535 14.4451 0.00112412 -0.000803175 10.5803 -0.000568314 -0.000447449 -2.32876 -1.69197 86.8812 32.8037 0.000115388 -0.000175494 15.1989 0.00092566 -0.000716588 16.0249 -0.000491812 -0.000365799 -2.32822 -58.2561 83.2335 92.5777 0.000121928 -0.000864978 16.2201 0.00154493 -0.000415919 17.0667 -0.000611665 -0.000645588 -2.32756 -63.1509 86.098 89.0182 0.00113425 -0.00114671 19.279 0.00014466 -0.000166142 18.9148 -0.00541235 0.00197595 -2.3342 -54.8317 -20.669 -8.73201 -3.26523 45.0368 26.971 7.08476 20.3184 24.6564 0.226358 35.6684 -10.3911 142.216 51.8015 169.894 -0.000199473 9.98009e-005 16.9256 7.49239e-005 7.93114e-005 18.8544 -0.000213623 -1.52588e-005 -180 -95.0211 -68.1737 -102.298 -0.00022005 -0.000224461 49.758 1.95152e-005 -9.73709e-005 45.1945 -4.57764e-005 -9.15529e-005 -180 -106.04 -79.9255 -76.1225 -0.00021585 1.25876e-005 65.9843 -0.000291488 0.000334889 58.5702 6.10352e-005 -3.05176e-005 -180 -16.1942 -83.9695 34.429 -9.14564e-005 0.000266262 55.5556 -0.000195273 -7.03721e-005 57.7158 -3.05175e-005 -0.000183106 -180 13.3071 -78.0078 70.2567 -0.000296447 0.00053401 51.2477 -4.31326e-005 0.000135886 49.3612 -3.05175e-005 -0.000137329 -180 
0 0 0 -90 -7.01671e-015 -180 -136.934 76.74 24.9512 142.237 -0.232558 -95.1824 -2.67758 -2.38999 -49.5845 15.5768 21.7788 35.2004 -17.2994 21.1782 58.7462 5.66994e-007 2.51505e-005 -86.4974 168.405 -23.0805 -115.82 -0.239117 0.237653 -4.67374 -9.05551 -2.2008 39.7039 -4.19317 3.99893 52.6726 0.000120967 -4.24604e-005 -86.4975 -1.0194e-005 8.43785e-005 123.572 -8.51226 7.53019 -12.0543 14.2944 5.06485 -13.8139 0.373421 -3.26228 -8.55978 3.65288 -6.01325 38.6698 7.93385 -11.8769 46.124 105.85 21.7504 -31.4121 63.253 15.2449 -8.34038 -11.3782 30.2797 28.2386 -0.592251 -48.3554 -3.7315 -158.66 -1.25302 154.878 0.00046752 -0.000153392 18.1946 0.0001518 -4.95788e-005 11.9022 0.00018185 -0.0013893 -0.0001588 35.2422 86.5239 -17.0684 -0.000307893 -0.000225136 14.3361 0.00112094 -0.000803409 10.4589 -0.000566593 -0.000446671 -2.31831 -1.72237 86.8809 32.7309 0.000116357 -0.000176695 15.0956 0.000925943 -0.000711119 15.9217 -0.000491094 -0.00036414 -2.31777 -58.3227 83.2677 92.5642 0.000121492 -0.000865784 16.1401 0.00154425 -0.000419216 16.9866 -0.000611539 -0.000642218 -2.31711 -63.1208 86.1806 88.9648 0.00113099 -0.00114879 19.1941 0.0238867 0.00793329 18.837 -0.00406412 0.00147643 -2.33283 -54.8358 -20.6681 -8.75174 -2.39642 45.0449 26.464 6.97702 19.1113 24.4185 0.521373 37.0563 -10.3053 142.216 51.8015 169.894 -0.000200626 9.60427e-005 16.9256 7.86031e-005 7.80734e-005 18.8544 -0.000213623 -4.57764e-005 -180 -95.0211 -68.1737 -102.298 -0.000220296 -0.000224352 49.758 1.84795e-005 -0.000102764 45.1945 -4.57764e-005 -0.000106812 -180 -106.04 -79.9256 -76.1225 -0.000217615 6.20803e-006 65.9843 -0.000290666 0.000334495 58.5703 6.10352e-005 -6.10353e-005 -180 -16.1942 -83.9695 34.429 -9.05651e-005 0.000263834 55.5556 -0.000195722 -7.34592e-005 57.7158 -3.05175e-005 -0.000198365 -180 13.3071 -78.0078 70.2567 -0.000295593 0.00053226 51.2477 -3.9663e-005 0.000137603 49.3613 -3.05175e-005 -0.000152588 -180 
0 0 0 -90 -7.01671e-015 -180 -138.825 76.2319 26.7627 142.304 -0.254179 -95.0392 -2.63274 -2.27673 -50.5207 13.4376 20.0859 34.5876 -15.2543 18.9822 57.5358 -7.03509e-007 2.59144e-005 -86.4974 168.33 -23.0878 -116.217 -0.213815 0.555089 -4.6045 -9.27879 -1.90389 39.7938 -4.15385 3.96694 52.6707 0.000120952 -4.24539e-005 -86.4975 -1.00665e-005 8.41861e-005 123.485 -8.63562 7.33035 -12.0982 14.3324 4.94356 -13.8366 0.415557 -3.60643 -8.42182 3.60959 -5.97582 38.7948 7.72523 -11.6848 46.1525 105.856 21.6654 -31.8085 62.9462 15.1658 -8.42766 -11.7915 30.4373 28.7597 0.552165 -49.658 -3.50448 -158.666 -1.25169 154.626 0.000467434 -0.00016398 18.1946 0.0213857 0.00435799 11.753 0.00018185 -0.00139172 -0.0001588 32.905 86.5633 -15.1078 -0.000310281 -0.000224029 14.032 0.00111439 -0.000808034 10.1201 -0.000568204 -0.000444815 -2.30786 -1.80487 86.8799 32.5254 0.000112453 -0.000175142 14.8075 0.00645687 0.000837074 15.6273 -0.000487177 -0.000364365 -2.30732 -58.5074 83.3629 92.5255 0.000117721 -0.000867719 15.9166 0.00153825 -0.000417782 16.7632 -0.000612736 -0.000643554 -2.30666 -63.0793 86.4265 88.8732 0.00112779 -0.00115056 18.9571 0.0290072 0.00952714 18.569 -0.00271856 0.000980092 -2.33146 -54.8479 -20.6652 -8.80931 -1.69548 44.913 26.0179 6.92511 17.8799 24.3378 0.943851 38.437 -10.3353 142.215 51.8015 169.894 -0.000198605 9.4257e-005 16.9256 7.43751e-005 7.2334e-005 18.8544 -0.000213623 -7.6294e-005 -180 -95.0211 -68.1737 -102.298 -0.000219169 -0.00022588 49.758 2.76553e-005 -9.79055e-005 45.1945 -4.57764e-005 -0.000106812 -180 -106.041 -79.9255 -76.1227 -0.000215087 7.60554e-006 65.9843 -0.000292968 0.000329171 58.5703 4.57764e-005 6.10353e-005 -180 -16.1942 -83.9695 34.429 -9.31393e-005 0.00025514 55.5556 -0.0001938 -7.74731e-005 57.7158 -3.05175e-005 -0.000213623 -180 13.3071 -78.0078 70.2567 -0.000297623 0.000526912 51.2477 -4.61251e-005 0.00012491 49.3613 -3.05175e-005 -0.000167847 -180 
0 0 0 -90 -7.01671e-015 -180 -140.444 75.8185 28.2713 142.701 -0.262187 -94.686 -2.55891 -2.10407 -52.0086 11.0439 18.623 33.966 -10.1993 14.7489 53.7252 -5.56359e-006 2.27739e-005 -86.4974 168.253 -23.0358 -116.543 -0.193072 0.781357 -4.79343 -9.46333 -1.63092 40.0839 -4.11454 3.93496 52.6689 0.000120941 -4.24559e-005 -86.4975 -9.91376e-006 8.39547e-005 123.381 -8.7282 7.14749 -12.1588 14.3353 4.86702 -13.8644 0.448248 -3.88966 -8.30532 3.61153 -5.98531 39.0384 7.50137 -11.4996 46.2412 105.824 21.5747 -32.2305 62.5462 15.0012 -8.57509 -12.2468 30.5015 29.3317 2.05006 -51.3853 -3.05612 -158.676 -1.25043 154.244 0.000467321 -0.000186111 18.1946 0.000148973 -4.9404e-005 11.5033 0.000181852 -0.0013959 -0.0001588 29.2842 86.6164 -12.0583 -0.000311278 -0.000224688 13.5707 0.00110343 -0.000806646 9.60623 -0.000568573 -0.000445091 -2.29741 -1.92644 86.8785 32.2101 0.000111648 -0.0001746 14.3704 0.000913504 -0.000711666 15.1965 -0.000490512 -0.000363574 -2.29687 -58.7855 83.5073 92.4647 0.000110703 -0.000866143 15.5777 0.00153036 -0.000424182 16.4243 -0.000614112 -0.000646522 -2.29621 -62.9459 86.7994 88.664 0.00111853 -0.00115218 18.5977 0.000127475 -0.000168894 18.1457 -0.00137209 0.000481978 -2.33009 -54.867 -20.6607 -8.89962 -1.1346 44.6494 25.5937 6.92975 16.6397 24.4792 1.49843 39.7518 -10.5489 142.216 51.8015 169.894 -0.000198454 8.8404e-005 16.9256 7.46712e-005 6.68916e-005 18.8544 -0.000213623 -0.00012207 -180 -95.0211 -68.1737 -102.298 -0.000219139 -0.000228579 49.758 2.92893e-005 -0.000104116 45.1945 -4.57764e-005 -0.00012207 -180 -106.041 -79.9255 -76.123 -0.000214882 -5.79204e-006 65.9843 -0.000293741 0.000324066 58.5702 4.57764e-005 1.52588e-005 -180 -16.1942 -83.9695 34.429 -9.26856e-005 0.000245397 55.5556 -0.000194327 -8.90218e-005 57.7158 -3.05175e-005 -0.0002594 -180 13.3071 -78.0078 70.2567 -0.000297777 0.000522399 51.2477 -4.63571e-005 0.000114232 49.3613 -3.05175e-005 -0.000183106 -180 
0 0 0 -90 -7.01671e-015 -180 -141.705 75.5177 29.3883 143.486 -0.276659 -94.0754 -2.55548 -1.94439 -54.2206 9.18037 17.4949 33.1911 -3.99405 9.20514 48.7373 -1.49526e-005 1.58067e-005 -86.4975 168.168 -22.942 -116.826 -0.17762 0.895267 -5.17788 -9.61384 -1.3902 40.5454 -4.07521 3.90297 52.6672 0.000120932 -4.24592e-005 -86.4975 -9.7385e-006 8.36881e-005 123.261 -8.79066 6.99524 -12.2211 14.3227 4.85623 -13.8866 0.471879 -4.09367 -8.20558 3.63194 -6.0124 39.3481 7.31614 -11.3607 46.3864 105.764 21.4834 -32.652 62.0669 14.7515 -8.78107 -12.6859 30.4949 29.7976 3.04001 -53.0368 -2.55107 -158.69 -1.25003 153.726 0.000467225 -0.000226525 18.1946 0.00015091 -4.94244e-005 11.178 0.00018185 -0.00140615 -0.0001588 24.2478 86.6729 -7.79496 -0.00031452 -0.000226298 12.9465 0.00108915 -0.000808146 8.91084 -0.000568506 -0.000444991 -2.28696 -2.08575 86.8767 31.7783 0.000108846 -0.000175312 13.779 0.000901514 -0.000715835 14.6051 -0.000491414 -0.000365738 -2.28642 -59.1572 83.7027 92.3777 0.000106037 -0.000870748 15.1191 0.0015166 -0.000426506 15.9657 -0.000613898 -0.000641459 -2.28576 -62.6436 87.3039 88.2591 0.0011106 -0.00115485 18.1114 0.000114494 -0.00017729 17.5967 -2.72197e-005 -1.90507e-005 -2.32873 -54.8942 -20.6548 -9.02673 -0.746077 44.2938 25.2017 7.00405 15.551 24.8402 2.11009 40.8261 -10.9406 142.215 51.8015 169.894 -0.000198257 7.82359e-005 16.9256 7.50072e-005 5.40657e-005 18.8544 -0.000213623 -0.000152588 -180 -95.0211 -68.1737 -102.298 -0.000219172 -0.000235497 49.758 2.77675e-005 -0.000121137 45.1945 -4.57764e-005 -0.000152588 -180 -106.041 -79.9255 -76.1235 -0.000214763 -2.52747e-005 65.9843 -0.000294426 0.000312629 58.5703 3.05176e-005 0.000137329 -180 -16.1942 -83.9695 34.429 -9.33617e-005 0.000224336 55.5556 -0.000194449 -0.000109505 57.7158 -3.05175e-005 -0.000305176 -180 13.3071 -78.0078 70.2567 -0.000297859 0.00051464 51.2477 -4.66246e-005 9.24222e-005 49.3613 -3.05175e-005 -0.000198365 -180 
